<svg width="201" height="151" viewBox="0 0 201 151" fill="none" xmlns="http://www.w3.org/2000/svg">
<g filter="url(#filter0_f_3022_4433)">
<path fill-rule="evenodd" clip-rule="evenodd" d="M140.5 136.5L133.5 138.5H61.8407H23.5L61.8407 136.5H140.5Z" fill="url(#paint0_linear_3022_4433)"/>
</g>
<path fill-rule="evenodd" clip-rule="evenodd" d="M122.297 60.2984C122.297 58.1445 124.043 56.3984 126.197 56.3984H158.697C160.851 56.3984 162.597 58.1445 162.597 60.2984C162.597 62.4523 160.851 64.1984 158.697 64.1984H126.197C124.043 64.1984 122.297 62.4523 122.297 60.2984Z" fill="url(#paint1_linear_3022_4433)"/>
<path fill-rule="evenodd" clip-rule="evenodd" d="M148.297 52.5H76.7969L81.1543 101.521C81.6313 106.887 86.1266 111 91.5135 111H133.58C138.967 111 143.462 106.887 143.939 101.521L148.297 52.5ZM92.3969 95.725V69.4C92.3969 67.2461 94.143 65.5 96.2969 65.5C98.4508 65.5 100.197 67.2461 100.197 69.4V95.725C100.197 97.8789 98.4508 99.625 96.2969 99.625C94.143 99.625 92.3969 97.8789 92.3969 95.725ZM109.297 69.4V95.725C109.297 97.8789 111.043 99.625 113.197 99.625C115.351 99.625 117.097 97.8789 117.097 95.725V69.4C117.097 67.2461 115.351 65.5 113.197 65.5C111.043 65.5 109.297 67.2461 109.297 69.4ZM126.197 95.725V69.4C126.197 67.2461 127.943 65.5 130.097 65.5C132.251 65.5 133.997 67.2461 133.997 69.4V95.725C133.997 97.8789 132.251 99.625 130.097 99.625C127.943 99.625 126.197 97.8789 126.197 95.725Z" fill="url(#paint2_linear_3022_4433)"/>
<path fill-rule="evenodd" clip-rule="evenodd" d="M43 52.5H88.5L96.3 111H58.8084C53.5091 111 49.0573 107.015 48.4721 101.748L43 52.5ZM78.0447 95.3956L75.4447 68.7456C75.0833 66.6222 73.069 65.1939 70.9456 65.5553C68.8222 65.9167 67.3939 67.931 67.7553 70.0544L70.3553 96.7044C70.7167 98.8278 72.731 100.256 74.8544 99.8947C76.9778 99.5333 78.4061 97.519 78.0447 95.3956ZM59.8447 68.7456L62.4447 95.3956C62.8061 97.519 61.3778 99.5333 59.2544 99.8947C57.131 100.256 55.1167 98.8278 54.7553 96.7044L52.1553 70.0544C51.7939 67.931 53.2222 65.9167 55.3456 65.5553C57.469 65.1939 59.4833 66.6222 59.8447 68.7456Z" fill="url(#paint3_linear_3022_4433)"/>
<path fill-rule="evenodd" clip-rule="evenodd" d="M40.3984 52.5H85.8984L93.6984 111H56.2068C50.9075 111 46.4557 107.015 45.8704 101.748L40.3984 52.5ZM75.4431 95.3956L72.8431 68.7456C72.4817 66.6222 70.4673 65.1939 68.344 65.5553C66.2206 65.9167 64.7923 67.931 65.1537 70.0544L67.7537 96.7044C68.1151 98.8278 70.1294 100.256 72.2528 99.8947C74.3762 99.5333 75.8045 97.519 75.4431 95.3956ZM57.2431 68.7456L59.8431 95.3956C60.2045 97.519 58.7762 99.5333 56.6528 99.8947C54.5294 100.256 52.5151 98.8278 52.1537 96.7044L49.5537 70.0544C49.1923 67.931 50.6206 65.9167 52.744 65.5553C54.8673 65.1939 56.8817 66.6222 57.2431 68.7456Z" fill="url(#paint4_linear_3022_4433)"/>
<path fill-rule="evenodd" clip-rule="evenodd" d="M150.898 52.5H79.3984L83.7558 101.521C84.2328 106.887 88.728 111 94.115 111H136.182C141.569 111 146.064 106.887 146.541 101.521L150.898 52.5ZM94.9984 95.725V69.4C94.9984 67.2461 96.7445 65.5 98.8984 65.5C101.052 65.5 102.798 67.2461 102.798 69.4V95.725C102.798 97.8789 101.052 99.625 98.8984 99.625C96.7445 99.625 94.9984 97.8789 94.9984 95.725ZM111.898 69.4V95.725C111.898 97.8789 113.644 99.625 115.798 99.625C117.952 99.625 119.698 97.8789 119.698 95.725V69.4C119.698 67.2461 117.952 65.5 115.798 65.5C113.644 65.5 111.898 67.2461 111.898 69.4ZM128.798 95.725V69.4C128.798 67.2461 130.544 65.5 132.698 65.5C134.852 65.5 136.598 67.2461 136.598 69.4V95.725C136.598 97.8789 134.852 99.625 132.698 99.625C130.544 99.625 128.798 97.8789 128.798 95.725Z" fill="url(#paint5_linear_3022_4433)"/>
<path fill-rule="evenodd" clip-rule="evenodd" d="M36.5 44.7C36.5 41.8281 38.8281 39.5 41.7 39.5H78.1C80.9719 39.5 83.3 41.8281 83.3 44.7V53.8C83.3 56.6719 80.9719 59 78.1 59H41.7C38.8281 59 36.5 56.6719 36.5 53.8V44.7Z" fill="url(#paint6_linear_3022_4433)"/>
<path fill-rule="evenodd" clip-rule="evenodd" d="M36.5 44.7C36.5 41.8281 38.8281 39.5 41.7 39.5H78.1C80.9719 39.5 83.3 41.8281 83.3 44.7V53.8C83.3 56.6719 80.9719 59 78.1 59H41.7C38.8281 59 36.5 56.6719 36.5 53.8V44.7Z" fill="url(#paint7_linear_3022_4433)"/>
<path fill-rule="evenodd" clip-rule="evenodd" d="M74.8516 44.7C74.8516 41.8281 77.1797 39.5 80.0516 39.5H150.252C153.123 39.5 155.452 41.8281 155.452 44.7V53.8C155.452 56.6719 153.123 59 150.252 59H80.0516C77.1797 59 74.8516 56.6719 74.8516 53.8V44.7Z" fill="url(#paint8_linear_3022_4433)"/>
<path fill-rule="evenodd" clip-rule="evenodd" d="M74.8516 44.7C74.8516 41.8281 77.1797 39.5 80.0516 39.5H150.252C153.123 39.5 155.452 41.8281 155.452 44.7V53.8C155.452 56.6719 153.123 59 150.252 59H80.0516C77.1797 59 74.8516 56.6719 74.8516 53.8V44.7Z" fill="url(#paint9_linear_3022_4433)"/>
<path d="M160.002 60.4324L117.102 49.25" stroke="url(#paint10_linear_3022_4433)" stroke-width="7.54" stroke-linecap="round"/>
<path d="M117.422 50.8086C118.319 50.8086 119.047 50.0811 119.047 49.1836C119.047 48.2861 118.319 47.5586 117.422 47.5586C116.524 47.5586 115.797 48.2861 115.797 49.1836C115.797 50.0811 116.524 50.8086 117.422 50.8086Z" fill="#424750"/>
<path fill-rule="evenodd" clip-rule="evenodd" d="M148.5 78.5H77L81.3574 127.521C81.8344 132.887 86.3297 137 91.7166 137H133.783C139.17 137 143.666 132.887 144.143 127.521L148.5 78.5ZM92.6 121.725V95.4C92.6 93.2461 94.3461 91.5 96.5 91.5C98.6539 91.5 100.4 93.2461 100.4 95.4V121.725C100.4 123.879 98.6539 125.625 96.5 125.625C94.3461 125.625 92.6 123.879 92.6 121.725ZM109.5 95.4V121.725C109.5 123.879 111.246 125.625 113.4 125.625C115.554 125.625 117.3 123.879 117.3 121.725V95.4C117.3 93.2461 115.554 91.5 113.4 91.5C111.246 91.5 109.5 93.2461 109.5 95.4ZM126.4 121.725V95.4C126.4 93.2461 128.146 91.5 130.3 91.5C132.454 91.5 134.2 93.2461 134.2 95.4V121.725C134.2 123.879 132.454 125.625 130.3 125.625C128.146 125.625 126.4 123.879 126.4 121.725Z" fill="url(#paint11_linear_3022_4433)"/>
<path fill-rule="evenodd" clip-rule="evenodd" d="M43.2031 78.5H88.7031L96.5031 137H59.0115C53.7122 137 49.2604 133.015 48.6751 127.748L43.2031 78.5ZM78.2478 121.396L75.6478 94.7456C75.2864 92.6222 73.272 91.1939 71.1487 91.5553C69.0253 91.9167 67.597 93.931 67.9584 96.0544L70.5584 122.704C70.9198 124.828 72.9341 126.256 75.0575 125.895C77.1809 125.533 78.6092 123.519 78.2478 121.396ZM60.0478 94.7456L62.6478 121.396C63.0092 123.519 61.5809 125.533 59.4575 125.895C57.3341 126.256 55.3198 124.828 54.9584 122.704L52.3584 96.0544C51.997 93.931 53.4253 91.9167 55.5487 91.5553C57.672 91.1939 59.6864 92.6222 60.0478 94.7456Z" fill="url(#paint12_linear_3022_4433)"/>
<path fill-rule="evenodd" clip-rule="evenodd" d="M40.6016 78.5H86.1016L93.9016 137H56.41C51.1107 137 46.6589 133.015 46.0737 127.748L40.6016 78.5ZM75.6463 121.396L73.0463 94.7456C72.6849 92.6222 70.6706 91.1939 68.5472 91.5553C66.4238 91.9167 64.9955 93.931 65.3569 96.0544L67.9569 122.704C68.3183 124.828 70.3327 126.256 72.456 125.895C74.5794 125.533 76.0077 123.519 75.6463 121.396ZM57.4463 94.7456L60.0463 121.396C60.4077 123.519 58.9794 125.533 56.856 125.895C54.7327 126.256 52.7183 124.828 52.3569 122.704L49.7569 96.0544C49.3955 93.931 50.8238 91.9167 52.9472 91.5553C55.0706 91.1939 57.0849 92.6222 57.4463 94.7456Z" fill="url(#paint13_linear_3022_4433)"/>
<path fill-rule="evenodd" clip-rule="evenodd" d="M151.102 78.5H79.6016L83.959 127.521C84.436 132.887 88.9313 137 94.3182 137H136.385C141.772 137 146.267 132.887 146.744 127.521L151.102 78.5ZM95.2016 121.725V95.4C95.2016 93.2461 96.9477 91.5 99.1016 91.5C101.256 91.5 103.002 93.2461 103.002 95.4V121.725C103.002 123.879 101.256 125.625 99.1016 125.625C96.9477 125.625 95.2016 123.879 95.2016 121.725ZM112.102 95.4V121.725C112.102 123.879 113.848 125.625 116.002 125.625C118.156 125.625 119.902 123.879 119.902 121.725V95.4C119.902 93.2461 118.156 91.5 116.002 91.5C113.848 91.5 112.102 93.2461 112.102 95.4ZM129.002 121.725V95.4C129.002 93.2461 130.748 91.5 132.902 91.5C135.056 91.5 136.802 93.2461 136.802 95.4V121.725C136.802 123.879 135.056 125.625 132.902 125.625C130.748 125.625 129.002 123.879 129.002 121.725Z" fill="url(#paint14_linear_3022_4433)"/>
<path fill-rule="evenodd" clip-rule="evenodd" d="M36.7031 70.7C36.7031 67.8281 39.0312 65.5 41.9031 65.5H78.3031C81.175 65.5 83.5031 67.8281 83.5031 70.7V79.8C83.5031 82.6719 81.175 85 78.3031 85H41.9031C39.0312 85 36.7031 82.6719 36.7031 79.8V70.7Z" fill="url(#paint15_linear_3022_4433)"/>
<path fill-rule="evenodd" clip-rule="evenodd" d="M36.7031 70.7C36.7031 67.8281 39.0312 65.5 41.9031 65.5H78.3031C81.175 65.5 83.5031 67.8281 83.5031 70.7V79.8C83.5031 82.6719 81.175 85 78.3031 85H41.9031C39.0312 85 36.7031 82.6719 36.7031 79.8V70.7Z" fill="url(#paint16_linear_3022_4433)"/>
<path fill-rule="evenodd" clip-rule="evenodd" d="M75.0469 70.7C75.0469 67.8281 77.375 65.5 80.2469 65.5H150.447C153.319 65.5 155.647 67.8281 155.647 70.7V79.8C155.647 82.6719 153.319 85 150.447 85H80.2469C77.375 85 75.0469 82.6719 75.0469 79.8V70.7Z" fill="url(#paint17_linear_3022_4433)"/>
<path fill-rule="evenodd" clip-rule="evenodd" d="M75.0469 70.7C75.0469 67.8281 77.375 65.5 80.2469 65.5H150.447C153.319 65.5 155.647 67.8281 155.647 70.7V79.8C155.647 82.6719 153.319 85 150.447 85H80.2469C77.375 85 75.0469 82.6719 75.0469 79.8V70.7Z" fill="url(#paint18_linear_3022_4433)"/>
<path fill-rule="evenodd" clip-rule="evenodd" d="M31.5 90.2008C31.5 88.0469 33.2461 86.3008 35.4 86.3008H71.8V94.1008H35.4C33.2461 94.1008 31.5 92.3548 31.5 90.2008Z" fill="url(#paint19_linear_3022_4433)"/>
<path d="M71.7969 90.2L117.297 75.25" stroke="url(#paint20_linear_3022_4433)" stroke-width="7.54" stroke-linecap="round"/>
<path d="M117.625 76.8086C118.522 76.8086 119.25 76.0811 119.25 75.1836C119.25 74.2861 118.522 73.5586 117.625 73.5586C116.728 73.5586 116 74.2861 116 75.1836C116 76.0811 116.728 76.8086 117.625 76.8086Z" fill="#424750"/>
<defs>
<filter id="filter0_f_3022_4433" x="20.7817" y="133.782" width="122.437" height="7.43656" filterUnits="userSpaceOnUse" color-interpolation-filters="sRGB">
<feFlood flood-opacity="0" result="BackgroundImageFix"/>
<feBlend mode="normal" in="SourceGraphic" in2="BackgroundImageFix" result="shape"/>
<feGaussianBlur stdDeviation="1.35914" result="effect1_foregroundBlur_3022_4433"/>
</filter>
<linearGradient id="paint0_linear_3022_4433" x1="73.1759" y1="135.92" x2="73.1178" y2="139.342" gradientUnits="userSpaceOnUse">
<stop stop-color="#A1A3A8"/>
<stop offset="1" stop-color="#C1C3C7"/>
</linearGradient>
<linearGradient id="paint1_linear_3022_4433" x1="122.297" y1="56.3984" x2="122.297" y2="64.1984" gradientUnits="userSpaceOnUse">
<stop stop-color="#62666D"/>
<stop offset="1" stop-color="#030A16"/>
</linearGradient>
<linearGradient id="paint2_linear_3022_4433" x1="83.8113" y1="63.978" x2="83.8113" y2="111" gradientUnits="userSpaceOnUse">
<stop stop-color="#6E7681"/>
<stop offset="1" stop-color="#B0B6BD"/>
</linearGradient>
<linearGradient id="paint3_linear_3022_4433" x1="48.2289" y1="63.978" x2="48.2289" y2="111" gradientUnits="userSpaceOnUse">
<stop stop-color="#6E7681"/>
<stop offset="1" stop-color="#B0B6BD"/>
</linearGradient>
<linearGradient id="paint4_linear_3022_4433" x1="47.345" y1="62.2952" x2="47.345" y2="111" gradientUnits="userSpaceOnUse">
<stop stop-color="#92959A"/>
<stop offset="0.901139" stop-color="#CACCD1"/>
<stop offset="1" stop-color="#B7BCC6"/>
</linearGradient>
<linearGradient id="paint5_linear_3022_4433" x1="112.468" y1="39.193" x2="71.1915" y2="93.515" gradientUnits="userSpaceOnUse">
<stop stop-color="#DDDEE0"/>
<stop offset="1" stop-color="#CACCD0"/>
</linearGradient>
<linearGradient id="paint6_linear_3022_4433" x1="76.327" y1="44.4936" x2="41.1313" y2="44.4936" gradientUnits="userSpaceOnUse">
<stop stop-color="#B9BCC1"/>
<stop offset="1" stop-color="#A7AAB2"/>
</linearGradient>
<linearGradient id="paint7_linear_3022_4433" x1="36.5" y1="39.5" x2="36.5" y2="59" gradientUnits="userSpaceOnUse">
<stop stop-color="#FEFEFE" stop-opacity="0.578316"/>
<stop offset="0.163444" stop-color="white" stop-opacity="0.2"/>
<stop offset="0.840292" stop-color="white" stop-opacity="0.01"/>
<stop offset="1" stop-opacity="0.1"/>
</linearGradient>
<linearGradient id="paint8_linear_3022_4433" x1="143.443" y1="44.4936" x2="82.8277" y2="44.4936" gradientUnits="userSpaceOnUse">
<stop stop-color="#DCDDE0"/>
<stop offset="1" stop-color="#CECFD4"/>
</linearGradient>
<linearGradient id="paint9_linear_3022_4433" x1="74.8516" y1="39.5" x2="74.8516" y2="59" gradientUnits="userSpaceOnUse">
<stop stop-color="#FEFEFE" stop-opacity="0.578316"/>
<stop offset="0.163444" stop-color="white" stop-opacity="0.2"/>
<stop offset="0.840292" stop-color="white" stop-opacity="0.01"/>
<stop offset="1" stop-opacity="0.05"/>
</linearGradient>
<linearGradient id="paint10_linear_3022_4433" x1="181.452" y1="54.9571" x2="176.202" y2="34.391" gradientUnits="userSpaceOnUse">
<stop stop-color="#030A16"/>
<stop offset="1" stop-color="#62666D"/>
</linearGradient>
<linearGradient id="paint11_linear_3022_4433" x1="84.0144" y1="89.978" x2="84.0144" y2="137" gradientUnits="userSpaceOnUse">
<stop stop-color="#6E7681"/>
<stop offset="1" stop-color="#B0B6BD"/>
</linearGradient>
<linearGradient id="paint12_linear_3022_4433" x1="48.432" y1="89.978" x2="48.432" y2="137" gradientUnits="userSpaceOnUse">
<stop stop-color="#6E7681"/>
<stop offset="1" stop-color="#B0B6BD"/>
</linearGradient>
<linearGradient id="paint13_linear_3022_4433" x1="47.5483" y1="88.2952" x2="47.5483" y2="137" gradientUnits="userSpaceOnUse">
<stop stop-color="#92959A"/>
<stop offset="0.901139" stop-color="#CACCD1"/>
<stop offset="1" stop-color="#B7BCC6"/>
</linearGradient>
<linearGradient id="paint14_linear_3022_4433" x1="112.671" y1="65.193" x2="71.3947" y2="119.515" gradientUnits="userSpaceOnUse">
<stop stop-color="#DDDEE0"/>
<stop offset="1" stop-color="#CACCD0"/>
</linearGradient>
<linearGradient id="paint15_linear_3022_4433" x1="76.5301" y1="70.4936" x2="41.3344" y2="70.4936" gradientUnits="userSpaceOnUse">
<stop stop-color="#B9BCC1"/>
<stop offset="1" stop-color="#A7AAB2"/>
</linearGradient>
<linearGradient id="paint16_linear_3022_4433" x1="36.7031" y1="65.5" x2="36.7031" y2="85" gradientUnits="userSpaceOnUse">
<stop stop-color="#FEFEFE" stop-opacity="0.578316"/>
<stop offset="0.163444" stop-color="white" stop-opacity="0.2"/>
<stop offset="0.840292" stop-color="white" stop-opacity="0.01"/>
<stop offset="1" stop-opacity="0.1"/>
</linearGradient>
<linearGradient id="paint17_linear_3022_4433" x1="143.638" y1="70.4936" x2="83.023" y2="70.4936" gradientUnits="userSpaceOnUse">
<stop stop-color="#DCDDE0"/>
<stop offset="1" stop-color="#CECFD4"/>
</linearGradient>
<linearGradient id="paint18_linear_3022_4433" x1="75.0469" y1="65.5" x2="75.0469" y2="85" gradientUnits="userSpaceOnUse">
<stop stop-color="#FEFEFE" stop-opacity="0.578316"/>
<stop offset="0.163444" stop-color="white" stop-opacity="0.2"/>
<stop offset="0.840292" stop-color="white" stop-opacity="0.01"/>
<stop offset="1" stop-opacity="0.05"/>
</linearGradient>
<linearGradient id="paint19_linear_3022_4433" x1="31.5" y1="86.3008" x2="31.5" y2="94.1008" gradientUnits="userSpaceOnUse">
<stop stop-color="#62666D"/>
<stop offset="1" stop-color="#030A16"/>
</linearGradient>
<linearGradient id="paint20_linear_3022_4433" x1="94.5469" y1="67.9837" x2="86.1195" y2="94.3689" gradientUnits="userSpaceOnUse">
<stop stop-color="#62666D"/>
<stop offset="1" stop-color="#030A16"/>
</linearGradient>
</defs>
</svg>
