<svg width="181" height="135" viewBox="0 0 181 135" fill="none" xmlns="http://www.w3.org/2000/svg">
<g id="empty-notification 1">
<g id="Group" filter="url(#filter0_f_3022_4615)">
<path id="Vector" fill-rule="evenodd" clip-rule="evenodd" d="M119.3 122.4L118.623 123.3H61.1056H32L61.1056 122.4H119.3Z" fill="url(#paint0_linear_3022_4615)"/>
</g>
<path id="Vector_2" fill-rule="evenodd" clip-rule="evenodd" d="M49.1016 40.3008C49.1016 26.4937 60.2945 15.3008 74.1016 15.3008H105.102C118.909 15.3008 130.102 26.4937 130.102 40.3008V78.3008H49.1016V40.3008Z" fill="url(#paint1_linear_3022_4615)"/>
<path id="Vector_3" fill-rule="evenodd" clip-rule="evenodd" d="M68.9 27L77 48.15L56.75 70.65L68.9 27Z" fill="url(#paint2_linear_3022_4615)" fill-opacity="0.3"/>
<path id="Vector_4" fill-rule="evenodd" clip-rule="evenodd" d="M79.6984 3.59961H73.3984V48.5996H74.6984C77.4598 48.5996 79.6984 46.361 79.6984 43.5996V3.59961Z" fill="url(#paint3_linear_3022_4615)"/>
<path id="Vector_5" fill-rule="evenodd" clip-rule="evenodd" d="M77.8984 3.59961H68.8984V44.0996C68.8984 46.5849 70.9131 48.5996 73.3984 48.5996C75.8837 48.5996 77.8984 46.5849 77.8984 44.0996V3.59961Z" fill="url(#paint4_linear_3022_4615)"/>
<path id="Vector_6" fill-rule="evenodd" clip-rule="evenodd" d="M50.8984 3.59961H68.8984V18.8996H50.8984L54.4984 10.7996L50.8984 3.59961Z" fill="url(#paint5_linear_3022_4615)"/>
<path id="Vector_7" d="M73.4016 45.0004C74.3957 45.0004 75.2016 44.1945 75.2016 43.2004C75.2016 42.2063 74.3957 41.4004 73.4016 41.4004C72.4075 41.4004 71.6016 42.2063 71.6016 43.2004C71.6016 44.1945 72.4075 45.0004 73.4016 45.0004Z" fill="#6A717C"/>
<path id="Vector_8" fill-rule="evenodd" clip-rule="evenodd" d="M80.6016 78.3008H97.2516L80.6016 90.0009V78.3008Z" fill="url(#paint6_linear_3022_4615)"/>
<path id="Vector_9" fill-rule="evenodd" clip-rule="evenodd" d="M85.1016 37.8009C85.1016 25.3744 95.1752 15.3008 107.602 15.3008C120.028 15.3008 130.102 25.3744 130.102 37.8009V78.3008H85.1016V37.8009Z" fill="url(#paint7_linear_3022_4615)"/>
<path id="Vector_10" d="M116.602 39.5996H98.6016C96.1163 39.5996 94.1016 41.6143 94.1016 44.0996C94.1016 46.5849 96.1163 48.5996 98.6016 48.5996H116.602C119.087 48.5996 121.102 46.5849 121.102 44.0996C121.102 41.6143 119.087 39.5996 116.602 39.5996Z" fill="url(#paint8_linear_3022_4615)"/>
<path id="Vector_11" d="M113.002 39.5996H98.6016C96.1163 39.5996 94.1016 41.6143 94.1016 44.0996C94.1016 46.5849 96.1163 48.5996 98.6016 48.5996H113.002C115.487 48.5996 117.502 46.5849 117.502 44.0996C117.502 41.6143 115.487 39.5996 113.002 39.5996Z" fill="url(#paint9_linear_3022_4615)"/>
<path id="Vector_12" fill-rule="evenodd" clip-rule="evenodd" d="M73.3984 122.399H119.298C119.298 113.452 112.045 106.199 103.098 106.199C98.0738 106.199 93.5834 108.486 90.612 112.077C88.9692 111.198 87.092 110.699 85.0984 110.699C78.6367 110.699 73.3984 115.937 73.3984 122.399Z" fill="url(#paint10_linear_3022_4615)"/>
<path id="Vector_13" d="M98.6016 78.3008H80.6016V122.401H98.6016V78.3008Z" fill="url(#paint11_linear_3022_4615)"/>
<path id="Vector_14" d="M98.6016 78.3008H80.6016V122.401H98.6016V78.3008Z" fill="url(#paint12_linear_3022_4615)"/>
<path id="Vector_15" fill-rule="evenodd" clip-rule="evenodd" d="M80.6016 78.3008H97.2516L80.6016 90.0009V78.3008Z" fill="url(#paint13_linear_3022_4615)"/>
<path id="Vector_16" fill-rule="evenodd" clip-rule="evenodd" d="M102.2 122.4H63.5C63.5 114.944 69.6153 108.9 77.1588 108.9C81.3953 108.9 85.1812 110.806 87.6866 113.798C89.0717 113.066 90.6544 112.65 92.3353 112.65C97.7834 112.65 102.2 117.015 102.2 122.4Z" fill="url(#paint14_linear_3022_4615)"/>
</g>
<defs>
<filter id="filter0_f_3022_4615" x="29.2817" y="119.682" width="92.7334" height="6.33695" filterUnits="userSpaceOnUse" color-interpolation-filters="sRGB">
<feFlood flood-opacity="0" result="BackgroundImageFix"/>
<feBlend mode="normal" in="SourceGraphic" in2="BackgroundImageFix" result="shape"/>
<feGaussianBlur stdDeviation="1.35914" result="effect1_foregroundBlur_3022_4615"/>
</filter>
<linearGradient id="paint0_linear_3022_4615" x1="69.0659" y1="122.139" x2="69.0501" y2="123.679" gradientUnits="userSpaceOnUse">
<stop stop-color="#A1A3A8"/>
<stop offset="1" stop-color="#C1C3C7"/>
</linearGradient>
<linearGradient id="paint1_linear_3022_4615" x1="131.213" y1="81.3022" x2="143.385" y2="15.1886" gradientUnits="userSpaceOnUse">
<stop stop-color="#008EB2"/>
<stop offset="0.593265" stop-color="#56C7DA"/>
<stop offset="1" stop-color="#87D3E1"/>
</linearGradient>
<linearGradient id="paint2_linear_3022_4615" x1="83.0479" y1="33.0703" x2="65.5294" y2="33.0703" gradientUnits="userSpaceOnUse">
<stop stop-color="#115F73"/>
<stop offset="1" stop-color="#115F73" stop-opacity="0.01"/>
</linearGradient>
<linearGradient id="paint3_linear_3022_4615" x1="79.0803" y1="12.4288" x2="79.0803" y2="48.5996" gradientUnits="userSpaceOnUse">
<stop stop-color="#C0C4CA"/>
<stop offset="1" stop-color="#676E79"/>
</linearGradient>
<linearGradient id="paint4_linear_3022_4615" x1="73.7358" y1="-6.63658" x2="87.3011" y2="-3.71523" gradientUnits="userSpaceOnUse">
<stop stop-color="#DDDEE0"/>
<stop offset="1" stop-color="#CACCD0"/>
</linearGradient>
<linearGradient id="paint5_linear_3022_4615" x1="69.1452" y1="19.6285" x2="72.3553" y2="3.67398" gradientUnits="userSpaceOnUse">
<stop stop-color="#EF394E"/>
<stop offset="0.593265" stop-color="#EF4959"/>
<stop offset="1" stop-color="#FF848D"/>
</linearGradient>
<linearGradient id="paint6_linear_3022_4615" x1="74.539" y1="79.6538" x2="76.5329" y2="88.5885" gradientUnits="userSpaceOnUse">
<stop stop-color="#A1A3A8"/>
<stop offset="1" stop-color="#A1A3A8" stop-opacity="0.01"/>
</linearGradient>
<linearGradient id="paint7_linear_3022_4615" x1="130.719" y1="81.3022" x2="151.13" y2="19.7115" gradientUnits="userSpaceOnUse">
<stop stop-color="#0FABC6"/>
<stop offset="0.593265" stop-color="#87D3E1"/>
<stop offset="1" stop-color="#B2EFFA"/>
</linearGradient>
<linearGradient id="paint8_linear_3022_4615" x1="104.837" y1="46.8104" x2="121.102" y2="46.8104" gradientUnits="userSpaceOnUse">
<stop stop-color="#066D88"/>
<stop offset="1" stop-color="#008EB2"/>
</linearGradient>
<linearGradient id="paint9_linear_3022_4615" x1="103.406" y1="46.8104" x2="117.502" y2="46.8104" gradientUnits="userSpaceOnUse">
<stop offset="0.0240182" stop-color="#115F73"/>
<stop offset="1" stop-color="#007491"/>
</linearGradient>
<linearGradient id="paint10_linear_3022_4615" x1="101.432" y1="107.041" x2="105.785" y2="123.383" gradientUnits="userSpaceOnUse">
<stop stop-color="#39AE00"/>
<stop offset="1" stop-color="#6BB927"/>
</linearGradient>
<linearGradient id="paint11_linear_3022_4615" x1="88.8029" y1="63.7082" x2="62.7678" y2="75.8007" gradientUnits="userSpaceOnUse">
<stop stop-color="#CACCD0"/>
<stop offset="0.486411" stop-color="#DCDDDF"/>
<stop offset="1" stop-color="#DDDEE0"/>
</linearGradient>
<linearGradient id="paint12_linear_3022_4615" x1="98.6016" y1="66.5147" x2="80.6016" y2="66.5147" gradientUnits="userSpaceOnUse">
<stop stop-color="white" stop-opacity="0.01"/>
<stop offset="1" stop-opacity="0.108774"/>
</linearGradient>
<linearGradient id="paint13_linear_3022_4615" x1="74.539" y1="79.6538" x2="76.5329" y2="88.5885" gradientUnits="userSpaceOnUse">
<stop stop-color="#A1A3A8"/>
<stop offset="1" stop-color="#A1A3A8" stop-opacity="0.01"/>
</linearGradient>
<linearGradient id="paint14_linear_3022_4615" x1="78.5639" y1="109.602" x2="74.9726" y2="123.241" gradientUnits="userSpaceOnUse">
<stop stop-color="#9DC44D"/>
<stop offset="1" stop-color="#6BB927"/>
</linearGradient>
</defs>
</svg>
