<svg width="48" height="48" viewBox="0 0 48 48" fill="none" xmlns="http://www.w3.org/2000/svg">
<g id="fd4840b2 1" clip-path="url(#clip0_3022_3994)">
<g id="profile-change-avatar">
<g id="hamedof">
<g id="noun_956179_cc">
<path id="Shape" d="M24 0C10.7478 0 0 10.7478 0 24C0 28.487 1.25217 32.713 3.44348 36.313C3.86087 37.0435 4.38261 37.7739 4.85217 38.4C5.58261 39.3913 6.36522 40.2783 7.25217 41.113C8.03478 41.8435 8.81739 42.5739 9.70435 43.2C13.6696 46.2261 18.6261 48 24 48C29.3739 48 34.3304 46.2261 38.2957 43.2522C39.1826 42.6261 39.9652 41.8957 40.7478 41.1652C41.6348 40.3304 42.4174 39.3913 43.1478 38.4522C43.6696 37.7739 44.1391 37.0957 44.5565 36.3652C46.7478 32.7652 48 28.5391 48 24.0522C48 10.7478 37.2522 0 24 0ZM24 4.74783C30.313 4.74783 35.4783 9.91304 35.4783 16.2261C35.4783 22.5391 30.313 27.7043 24 27.7043C17.687 27.7043 12.5217 22.5391 12.5217 16.2261C12.5217 9.91304 17.687 4.74783 24 4.74783ZM43.4087 34.1739C43.0435 34.8522 42.6261 35.5304 42.2087 36.2087C40.9565 38.087 39.3913 39.7565 37.6174 41.1652C36.6261 41.9478 35.5826 42.6261 34.487 43.2522C31.3565 44.9217 27.8087 45.913 24.0522 45.913C20.2957 45.913 16.6957 44.9217 13.6174 43.2522C12.5217 42.6261 11.4783 41.9478 10.487 41.1652C8.71304 39.7565 7.14783 38.087 5.89565 36.2087C5.47826 35.5826 5.06087 34.9044 4.69565 34.1739C6.93913 30.8348 10.5391 28.4348 14.7652 27.8609C15.0261 27.8087 15.287 27.913 15.5478 28.0696C18.0522 29.8957 21.0261 30.887 24.1043 30.887C27.1826 30.887 30.2087 29.9478 32.6609 28.0696C32.8696 27.913 33.1304 27.8609 33.4435 27.8609C37.5652 28.4348 41.1652 30.8348 43.4087 34.1739Z" fill="#DDDDDD"/>
</g>
</g>
</g>
</g>
<defs>
<clipPath id="clip0_3022_3994">
<rect width="48" height="48" fill="white"/>
</clipPath>
</defs>
</svg>
