<svg width="179" height="136" viewBox="0 0 179 136" fill="none" xmlns="http://www.w3.org/2000/svg">
<g id="order-empty 1">
<g id="Group" filter="url(#filter0_f_3022_4074)">
<path id="Vector" fill-rule="evenodd" clip-rule="evenodd" d="M40 122.9L40.6767 123.8H98.1944H127.3L98.1944 122.9H40Z" fill="url(#paint0_linear_3022_4074)"/>
</g>
<path id="Vector_2" fill-rule="evenodd" clip-rule="evenodd" d="M60.7031 14.9004V105.8H123.235C128.961 105.8 133.603 101.158 133.603 95.4324V14.9004H60.7031Z" fill="url(#paint1_linear_3022_4074)"/>
<path id="Vector_3" d="M74.1981 26.5996H113.078V30.4876H74.1981V26.5996Z" fill="url(#paint2_linear_3022_4074)"/>
<path id="Vector_4" d="M116.971 26.5996H120.859V30.4876H116.971V26.5996Z" fill="#A1A3A8"/>
<path id="Vector_5" d="M74.1981 35.6719H113.078V39.5599H74.1981V35.6719Z" fill="url(#paint3_linear_3022_4074)"/>
<path id="Vector_6" d="M116.971 35.6719H120.859V39.5599H116.971V35.6719Z" fill="#A1A3A8"/>
<path id="Vector_7" d="M74.1981 44.7441H113.078V48.6321H74.1981V44.7441Z" fill="url(#paint4_linear_3022_4074)"/>
<path id="Vector_8" d="M116.971 44.7441H120.859V48.6321H116.971V44.7441Z" fill="#A1A3A8"/>
<path id="Vector_9" d="M74.1981 53.8164H113.078V57.7044H74.1981V53.8164Z" fill="url(#paint5_linear_3022_4074)"/>
<path id="Vector_10" d="M116.971 53.8164H120.859V57.7044H116.971V53.8164Z" fill="#A1A3A8"/>
<path id="Vector_11" d="M74.1981 62.8887H113.078V66.7767H74.1981V62.8887Z" fill="url(#paint6_linear_3022_4074)"/>
<path id="Vector_12" d="M116.971 62.8887H120.859V66.7767H116.971V62.8887Z" fill="#A1A3A8"/>
<path id="Vector_13" d="M74.1981 71.9609H113.078V75.8489H74.1981V71.9609Z" fill="url(#paint7_linear_3022_4074)"/>
<path id="Vector_14" d="M116.971 71.9609H120.859V75.8489H116.971V71.9609Z" fill="#A1A3A8"/>
<path id="Vector_15" d="M74.1981 81.0312H113.078V84.9193H74.1981V81.0312Z" fill="url(#paint8_linear_3022_4074)"/>
<path id="Vector_16" d="M116.971 81.0312H120.859V84.9193H116.971V81.0312Z" fill="#A1A3A8"/>
<path id="Vector_17" d="M74.1981 90.1035H113.078V93.9915H74.1981V90.1035Z" fill="url(#paint9_linear_3022_4074)"/>
<path id="Vector_18" d="M116.971 90.1035H120.859V93.9915H116.971V90.1035Z" fill="#A1A3A8"/>
<path id="Vector_19" fill-rule="evenodd" clip-rule="evenodd" d="M112.45 92.3008H40V94.3927C40 100.196 44.7046 104.901 50.5081 104.901H122.8C117.084 104.901 112.45 100.267 112.45 94.5508V92.3008Z" fill="url(#paint10_linear_3022_4074)"/>
</g>
<defs>
<filter id="filter0_f_3022_4074" x="37.2817" y="120.182" width="92.7334" height="6.33695" filterUnits="userSpaceOnUse" color-interpolation-filters="sRGB">
<feFlood flood-opacity="0" result="BackgroundImageFix"/>
<feBlend mode="normal" in="SourceGraphic" in2="BackgroundImageFix" result="shape"/>
<feGaussianBlur stdDeviation="1.35914" result="effect1_foregroundBlur_3022_4074"/>
</filter>
<linearGradient id="paint0_linear_3022_4074" x1="90.2341" y1="122.639" x2="90.2499" y2="124.179" gradientUnits="userSpaceOnUse">
<stop stop-color="#A1A3A8"/>
<stop offset="1" stop-color="#C1C3C7"/>
</linearGradient>
<linearGradient id="paint1_linear_3022_4074" x1="148.166" y1="14.9004" x2="148.166" y2="105.8" gradientUnits="userSpaceOnUse">
<stop stop-color="#EEEEEE"/>
<stop offset="0.894686" stop-color="#DDDDDD"/>
<stop offset="1" stop-color="#EDEDED"/>
</linearGradient>
<linearGradient id="paint2_linear_3022_4074" x1="74.1981" y1="28.5436" x2="113.078" y2="28.5436" gradientUnits="userSpaceOnUse">
<stop stop-color="#C0C2C5"/>
<stop offset="1" stop-color="#A1A3A8"/>
</linearGradient>
<linearGradient id="paint3_linear_3022_4074" x1="74.1981" y1="37.6159" x2="113.078" y2="37.6159" gradientUnits="userSpaceOnUse">
<stop stop-color="#C0C2C5"/>
<stop offset="1" stop-color="#A1A3A8"/>
</linearGradient>
<linearGradient id="paint4_linear_3022_4074" x1="74.1981" y1="46.6881" x2="113.078" y2="46.6881" gradientUnits="userSpaceOnUse">
<stop stop-color="#C0C2C5"/>
<stop offset="1" stop-color="#A1A3A8"/>
</linearGradient>
<linearGradient id="paint5_linear_3022_4074" x1="74.1981" y1="55.7604" x2="113.078" y2="55.7604" gradientUnits="userSpaceOnUse">
<stop stop-color="#C0C2C5"/>
<stop offset="1" stop-color="#A1A3A8"/>
</linearGradient>
<linearGradient id="paint6_linear_3022_4074" x1="74.1981" y1="64.8327" x2="113.078" y2="64.8327" gradientUnits="userSpaceOnUse">
<stop stop-color="#C0C2C5"/>
<stop offset="1" stop-color="#A1A3A8"/>
</linearGradient>
<linearGradient id="paint7_linear_3022_4074" x1="74.1981" y1="73.9049" x2="113.078" y2="73.9049" gradientUnits="userSpaceOnUse">
<stop stop-color="#C0C2C5"/>
<stop offset="1" stop-color="#A1A3A8"/>
</linearGradient>
<linearGradient id="paint8_linear_3022_4074" x1="74.1981" y1="82.9753" x2="113.078" y2="82.9753" gradientUnits="userSpaceOnUse">
<stop stop-color="#C0C2C5"/>
<stop offset="1" stop-color="#A1A3A8"/>
</linearGradient>
<linearGradient id="paint9_linear_3022_4074" x1="74.1981" y1="92.0475" x2="113.078" y2="92.0475" gradientUnits="userSpaceOnUse">
<stop stop-color="#C0C2C5"/>
<stop offset="1" stop-color="#A1A3A8"/>
</linearGradient>
<linearGradient id="paint10_linear_3022_4074" x1="139.341" y1="92.3008" x2="139.341" y2="104.901" gradientUnits="userSpaceOnUse">
<stop stop-color="#F0F0F1"/>
<stop offset="0.678311" stop-color="#E0E0E2"/>
<stop offset="1" stop-color="#C0C2C5"/>
</linearGradient>
</defs>
</svg>
