<svg width="28" height="28" viewBox="0 0 28 28" fill="none" xmlns="http://www.w3.org/2000/svg">
<g id="profile-wallet (1) 1">
<g id="Clip path group">
<mask id="mask0_2973_16119" style="mask-type:luminance" maskUnits="userSpaceOnUse" x="1" y="3" width="26" height="23">
<g id="clip0">
<path id="Vector" d="M26.4436 3.11133H1.55469V25.6669H26.4436V3.11133Z" fill="white"/>
</g>
</mask>
<g mask="url(#mask0_2973_16119)">
<g id="Group">
<g id="Clip path group_2">
<mask id="mask1_2973_16119" style="mask-type:luminance" maskUnits="userSpaceOnUse" x="2" y="3" width="24" height="18">
<g id="clip1">
<path id="Vector_2" d="M25.2431 3.11133H2.6875V21.0002H25.2431V3.11133Z" fill="white"/>
</g>
</mask>
<g mask="url(#mask1_2973_16119)">
<g id="Group_2">
<path id="Vector_3" d="M2.74219 6.63538L20.807 3.45007C21.5981 3.31058 22.3525 3.83882 22.492 4.62994L24.4425 15.6916C24.582 16.4828 24.0537 17.2372 23.2626 17.3767L5.19782 20.562L2.74219 6.63538Z" fill="#FFAEFF"/>
<g id="Mask group">
<mask id="mask2_2973_16119" style="mask-type:alpha" maskUnits="userSpaceOnUse" x="2" y="3" width="23" height="18">
<g id="Group_3">
<path id="Vector_4" d="M2.74219 6.63538L20.807 3.45007C21.5981 3.31058 22.3525 3.83882 22.492 4.62994L24.4425 15.6916C24.582 16.4828 24.0537 17.2372 23.2626 17.3767L5.19782 20.562L2.74219 6.63538Z" fill="white"/>
</g>
</mask>
<g mask="url(#mask2_2973_16119)">
<g id="Group_4">
<g id="Group_5" filter="url(#filter0_d_2973_16119)">
<path id="Vector_5" d="M23.292 6.45703H3.00924C2.20591 6.45703 1.55469 7.10826 1.55469 7.91158V23.6692C1.55469 24.4725 2.20591 25.1237 3.00924 25.1237H23.292C24.0954 25.1237 24.7466 24.4725 24.7466 23.6692V7.91158C24.7466 7.10826 24.0954 6.45703 23.292 6.45703Z" fill="url(#paint0_linear_2973_16119)"/>
</g>
</g>
</g>
</g>
</g>
</g>
</g>
<path id="Vector_6" fill-rule="evenodd" clip-rule="evenodd" d="M1.55469 8.22266C1.55469 7.11809 2.45012 6.22266 3.55469 6.22266H22.888C23.9925 6.22266 24.888 7.11809 24.888 8.22266V23.6671C24.888 24.7717 23.9925 25.6671 22.888 25.6671H3.55469C2.45012 25.6671 1.55469 24.7717 1.55469 23.6671V8.22266Z" fill="url(#paint1_linear_2973_16119)"/>
<g id="Group_6" filter="url(#filter1_d_2973_16119)">
<path id="Vector_7" fill-rule="evenodd" clip-rule="evenodd" d="M14 15.9438C14 13.5813 15.9152 11.666 18.2778 11.666H26.3546C26.4042 11.666 26.4444 11.7063 26.4444 11.7559V20.1317C26.4444 20.1814 26.4042 20.2216 26.3546 20.2216H18.2778C15.9152 20.2216 14 18.3064 14 15.9438Z" fill="#6900F6"/>
</g>
<path id="Vector_8" d="M18.2804 14H18.2804C17.2065 14 16.3359 14.8706 16.3359 15.9444V15.9445C16.3359 17.0183 17.2065 17.8889 18.2804 17.8889H18.2804C19.3543 17.8889 20.2248 17.0183 20.2248 15.9445V15.9444C20.2248 14.8706 19.3543 14 18.2804 14Z" fill="white"/>
</g>
</g>
</g>
</g>
<defs>
<filter id="filter0_d_2973_16119" x="-1.44531" y="3.45703" width="29.1953" height="24.666" filterUnits="userSpaceOnUse" color-interpolation-filters="sRGB">
<feFlood flood-opacity="0" result="BackgroundImageFix"/>
<feColorMatrix in="SourceAlpha" type="matrix" values="0 0 0 0 0 0 0 0 0 0 0 0 0 0 0 0 0 0 127 0" result="hardAlpha"/>
<feOffset/>
<feGaussianBlur stdDeviation="1.5"/>
<feColorMatrix type="matrix" values="0 0 0 0 0.637964 0 0 0 0 0.232295 0 0 0 0 0.637964 0 0 0 1 0"/>
<feBlend mode="normal" in2="BackgroundImageFix" result="effect1_dropShadow_2973_16119"/>
<feBlend mode="normal" in="SourceGraphic" in2="effect1_dropShadow_2973_16119" result="shape"/>
</filter>
<filter id="filter1_d_2973_16119" x="10" y="7.66602" width="20.4453" height="16.5547" filterUnits="userSpaceOnUse" color-interpolation-filters="sRGB">
<feFlood flood-opacity="0" result="BackgroundImageFix"/>
<feColorMatrix in="SourceAlpha" type="matrix" values="0 0 0 0 0 0 0 0 0 0 0 0 0 0 0 0 0 0 127 0" result="hardAlpha"/>
<feOffset/>
<feGaussianBlur stdDeviation="2"/>
<feColorMatrix type="matrix" values="0 0 0 0 0 0 0 0 0 0 0 0 0 0 0 0 0 0 0.2 0"/>
<feBlend mode="normal" in2="BackgroundImageFix" result="effect1_dropShadow_2973_16119"/>
<feBlend mode="normal" in="SourceGraphic" in2="effect1_dropShadow_2973_16119" result="shape"/>
</filter>
<linearGradient id="paint0_linear_2973_16119" x1="24.7466" y1="6.45703" x2="1.55469" y2="6.45703" gradientUnits="userSpaceOnUse">
<stop stop-color="#8C31ED"/>
<stop offset="1" stop-color="#A24BFF"/>
</linearGradient>
<linearGradient id="paint1_linear_2973_16119" x1="24.888" y1="6.22266" x2="1.55469" y2="6.22266" gradientUnits="userSpaceOnUse">
<stop stop-color="#8C31ED"/>
<stop offset="1" stop-color="#A24BFF"/>
</linearGradient>
</defs>
</svg>
